
<svg width="285px" height="66px" viewBox="0 0 285 66" version="1.1" xmlns="http://www.w3.org/2000/svg" xmlns:xlink="http://www.w3.org/1999/xlink">
    <g id="Page-1" stroke="none" stroke-width="1" fill="#000" fill-rule="evenodd">
        <path d="M0.268,38 L0.268,36.677 C2.53601134,36.677 3.85899811,36.2570042 4.237,35.417 L4.237,3.728 C3.85899811,2.8879958 2.53601134,2.468 0.268,2.468 L0.268,1.145 L11.671,1.145 L25.09,30.44 L38.509,1.145 L50.038,1.145 L50.038,2.468 C47.7699887,2.468 46.4470019,2.8879958 46.069,3.728 L46.069,35.417 C46.4470019,36.2570042 47.7699887,36.677 50.038,36.677 L50.038,38 L34.099,38 L34.099,36.677 C36.3670113,36.677 37.6899981,36.2570042 38.068,35.417 L38.068,7.13 L23.956,38 L20.806,38 L6.379,6.752 L6.379,35.417 C6.75700189,36.2570042 8.07998866,36.677 10.348,36.677 L10.348,38 L0.268,38 Z M54.574,38 L54.574,36.677 C56.8420113,36.677 58.1649981,36.2570042 58.543,35.417 L58.543,3.728 C58.1649981,2.8879958 56.8420113,2.468 54.574,2.468 L54.574,1.145 L80.593,1.145 L80.593,7.256 L79.27,7.256 C79.27,4.98798866 78.8500042,3.66500189 78.01,3.287 L66.544,3.287 L66.544,17.777 L73.789,17.777 C74.6290042,17.3989981 75.049,16.0760113 75.049,13.808 L76.372,13.808 L76.372,23.888 L75.049,23.888 C75.049,21.6199887 74.6290042,20.2970019 73.789,19.919 L66.544,19.919 L66.544,35.858 L79.333,35.858 C80.3830053,35.3959977 81.3279958,34.0730109 82.168,31.889 L83.428,31.889 L81.916,38 L54.574,38 Z M86.263,38 L86.263,36.677 C88.5310113,36.677 89.8539981,36.2570042 90.232,35.417 L90.232,3.728 C89.8539981,2.8879958 88.5310113,2.468 86.263,2.468 L86.263,1.145 L112.282,1.145 L112.282,7.256 L110.959,7.256 C110.959,4.98798866 110.539004,3.66500189 109.699,3.287 L98.233,3.287 L98.233,17.777 L105.478,17.777 C106.318004,17.3989981 106.738,16.0760113 106.738,13.808 L108.061,13.808 L108.061,23.888 L106.738,23.888 C106.738,21.6199887 106.318004,20.2970019 105.478,19.919 L98.233,19.919 L98.233,35.858 L111.022,35.858 C112.072005,35.3959977 113.016996,34.0730109 113.857,31.889 L115.117,31.889 L113.605,38 L86.263,38 Z M117.952,38 L117.952,36.677 C120.220011,36.677 121.542998,36.2570042 121.921,35.417 L121.921,3.728 C121.542998,2.8879958 120.220011,2.468 117.952,2.468 L117.952,1.145 L133.45,1.145 C138.658026,1.145 142.605987,2.08999055 145.294,3.98 C147.982013,5.87000945 149.326,8.03298782 149.326,10.469 C149.326,12.7790116 148.633007,14.8054913 147.247,16.5485 C145.860993,18.2915087 143.803014,19.561996 141.073,20.36 L149.452,35.354 C149.872002,36.2360044 151.257988,36.677 153.61,36.677 L153.61,38 L150.901,38 C147.582983,38 145.136508,37.8110019 143.5615,37.433 C141.986492,37.0549981 140.800004,36.1520071 140.002,34.724 L132.379,21.242 L129.922,21.242 L129.922,35.417 C130.300002,36.2570042 131.622989,36.677 133.891,36.677 L133.891,38 L117.952,38 Z M129.922,3.287 L129.922,19.1 L132.001,19.1 C134.857014,19.1 137.040992,18.4595064 138.553,17.1785 C140.065008,15.8974936 140.821,13.6820158 140.821,10.532 C140.821,8.09598782 139.970509,6.27950599 138.2695,5.0825 C136.568491,3.88549402 134.227015,3.287 131.245,3.287 L129.922,3.287 Z M168.163,38.63 C166.10499,38.63 164.005011,38.3150031 161.863,37.685 C159.720989,37.0549969 158.608,36.74 158.524,36.74 C158.271999,36.74 157.978002,36.8659987 157.642,37.118 C157.305998,37.3700013 157.138,37.6639983 157.138,38 L155.689,38 L155.689,28.046 L157.075,28.046 C157.537002,30.5240124 158.922988,32.5504921 161.233,34.1255 C163.543012,35.7005079 165.72699,36.488 167.785,36.488 C169.885011,36.488 171.575494,35.9315056 172.8565,34.8185 C174.137506,33.7054944 174.778,32.246009 174.778,30.44 C174.778,29.8099969 174.578502,29.190503 174.1795,28.5815 C173.780498,27.972497 173.150504,27.3425033 172.2895,26.6915 C171.428496,26.0404967 170.662003,25.4945022 169.99,25.0535 C169.317997,24.6124978 168.341506,24.0140038 167.0605,23.258 C165.779494,22.5019962 164.866003,21.9560017 164.32,21.62 C158.607971,18.0919824 155.752,14.3120202 155.752,10.28 C155.752,7.80198761 156.885989,5.55501008 159.154,3.539 C161.422011,1.52298992 163.962986,0.515 166.777,0.515 C168.037006,0.515 169.569991,0.82999685 171.376,1.46 C173.182009,2.09000315 174.189999,2.405 174.4,2.405 C174.904003,2.405 175.156,1.9850042 175.156,1.145 L176.605,1.145 L177.235,10.658 L175.849,10.658 C175.596999,8.93599139 174.46301,7.17200903 172.447,5.366 C170.43099,3.55999097 168.562009,2.657 166.84,2.657 C164.949991,2.657 163.522005,3.25549402 162.556,4.4525 C161.589995,5.64950599 161.107,6.91999328 161.107,8.264 C161.107,8.81000273 161.295998,9.34549737 161.674,9.8705 C162.052002,10.3955026 162.660996,10.9729969 163.501,11.603 C164.341004,12.2330032 165.075997,12.747498 165.706,13.1465 C166.336003,13.545502 167.301993,14.1229962 168.604,14.879 C169.906007,15.6350038 170.808997,16.1599985 171.313,16.454 C174.211014,18.2180088 176.478992,20.0449905 178.117,21.935 C179.755008,23.8250094 180.574,26.071987 180.574,28.676 C180.574,31.7840155 179.314013,34.2199912 176.794,35.984 C174.273987,37.7480088 171.397016,38.63 168.163,38.63 Z M182.653,1.145 L215.224,1.145 L215.224,7.256 L213.901,7.256 C213.901,5.23998992 213.166007,3.91700315 211.696,3.287 L202.939,3.287 L202.939,35.417 C203.317002,36.2570042 204.639989,36.677 206.908,36.677 L206.908,38 L190.969,38 L190.969,36.677 C193.237011,36.677 194.559998,36.2570042 194.938,35.417 L194.938,3.287 L186.181,3.287 C184.710993,3.91700315 183.976,5.23998992 183.976,7.256 L182.653,7.256 L182.653,1.145 Z M233.746,38 L233.746,36.677 C235.67801,36.677 236.895997,36.4250025 237.4,35.921 L233.872,26.282 L221.776,26.282 L218.5,35.543 C218.920002,36.2990038 220.221989,36.677 222.406,36.677 L222.406,38 L212.074,38 L212.074,36.677 C214.384012,36.677 215.706998,36.2360044 216.043,35.354 L228.265,1.145 L233.368,1.145 L245.716,35.354 C246.010001,36.2360044 247.353988,36.677 249.748,36.677 L249.748,38 L233.746,38 Z M227.761,9.524 L222.532,24.203 L233.116,24.203 L227.761,9.524 Z M250.945,38.063 L250.945,36.74 C253.213011,36.74 254.535998,36.3200042 254.914,35.48 L254.914,3.791 C254.535998,2.9509958 253.213011,2.531 250.945,2.531 L250.945,1.208 L265.435,1.208 C271.105028,1.208 275.777482,2.91948289 279.4525,6.3425 C283.127518,9.76551711 284.965,14.1649731 284.965,19.541 C284.965,24.9590271 283.169518,29.4004827 279.5785,32.8655 C275.987482,36.3305173 271.525027,38.063 266.191,38.063 L250.945,38.063 Z M262.915,3.035 L262.915,35.921 L266.191,35.921 C269.047014,35.921 271.47249,34.5770134 273.4675,31.889 C275.46251,29.2009866 276.46,25.1060275 276.46,19.604 C276.46,14.0599723 275.41001,9.91251376 273.31,7.1615 C271.20999,4.41048625 268.585016,3.035 265.435,3.035 L262.915,3.035 Z M10.9990234,56.0351562 L2.04736328,56.0351562 L2.04736328,65 L0.42578125,65 L0.42578125,45.8046875 L12.3173828,45.8046875 L12.3173828,47.1889648 L2.04736328,47.1889648 L2.04736328,54.6508789 L10.9990234,54.6508789 L10.9990234,56.0351562 Z M44.0988281,56.4438477 C44.0988281,58.2104581 43.7934113,59.7617121 43.1825684,61.0976562 C42.5717255,62.4336004 41.6994197,63.4619105 40.565625,64.1826172 C39.4318303,64.9033239 38.1222731,65.2636719 36.6369141,65.2636719 C34.3956919,65.2636719 32.5851631,64.4616779 31.2052734,62.857666 C29.8253837,61.2536541 29.1354492,59.0893691 29.1354492,56.3647461 L29.1354492,54.387207 C29.1354492,52.6381748 29.4452606,51.0891181 30.0648926,49.7399902 C30.6845246,48.3908624 31.5612248,47.3537634 32.6950195,46.6286621 C33.8288143,45.9035608 35.133977,45.5410156 36.6105469,45.5410156 C38.0871168,45.5410156 39.3900822,45.8969691 40.5194824,46.6088867 C41.6488826,47.3208043 42.5211883,48.3271419 43.1364258,49.6279297 C43.7516632,50.9287174 44.0724608,52.4360266 44.0988281,54.1499023 L44.0988281,56.4438477 Z M42.4772461,54.3608398 C42.4772461,52.0493048 41.9543021,50.2387761 40.9083984,48.9291992 C39.8624948,47.6196224 38.4298919,46.9648438 36.6105469,46.9648438 C34.8263583,46.9648438 33.4047416,47.6218196 32.3456543,48.935791 C31.286567,50.2497624 30.7570313,52.0844609 30.7570313,54.4399414 L30.7570313,56.4438477 C30.7570313,58.7202262 31.2843697,60.5241633 32.3390625,61.8557129 C33.3937553,63.1872625 34.8263581,63.8530273 36.6369141,63.8530273 C38.4738373,63.8530273 39.9064402,63.1960515 40.9347656,61.8820801 C41.9630911,60.5681087 42.4772461,58.7378047 42.4772461,56.3911133 L42.4772461,54.3608398 Z M75.1551758,47.1889648 L68.5765625,47.1889648 L68.5765625,65 L66.9549805,65 L66.9549805,47.1889648 L60.3895508,47.1889648 L60.3895508,45.8046875 L75.1551758,45.8046875 L75.1551758,47.1889648 Z M106.369727,56.4438477 C106.369727,58.2104581 106.06431,59.7617121 105.453467,61.0976562 C104.842624,62.4336004 103.970318,63.4619105 102.836523,64.1826172 C101.702729,64.9033239 100.393171,65.2636719 98.9078125,65.2636719 C96.6665904,65.2636719 94.8560616,64.4616779 93.4761719,62.857666 C92.0962822,61.2536541 91.4063477,59.0893691 91.4063477,56.3647461 L91.4063477,54.387207 C91.4063477,52.6381748 91.716159,51.0891181 92.335791,49.7399902 C92.955423,48.3908624 93.8321232,47.3537634 94.965918,46.6286621 C96.0997127,45.9035608 97.4048754,45.5410156 98.8814453,45.5410156 C100.358015,45.5410156 101.660981,45.8969691 102.790381,46.6088867 C103.919781,47.3208043 104.792087,48.3271419 105.407324,49.6279297 C106.022562,50.9287174 106.343359,52.4360266 106.369727,54.1499023 L106.369727,56.4438477 Z M104.748145,54.3608398 C104.748145,52.0493048 104.225201,50.2387761 103.179297,48.9291992 C102.133393,47.6196224 100.70079,46.9648438 98.8814453,46.9648438 C97.0972567,46.9648438 95.6756401,47.6218196 94.6165527,48.935791 C93.5574654,50.2497624 93.0279297,52.0844609 93.0279297,54.4399414 L93.0279297,56.4438477 C93.0279297,58.7202262 93.5552682,60.5241633 94.6099609,61.8557129 C95.6646537,63.1872625 97.0972566,63.8530273 98.9078125,63.8530273 C100.744736,63.8530273 102.177339,63.1960515 103.205664,61.8820801 C104.23399,60.5681087 104.748145,58.7378047 104.748145,56.3911133 L104.748145,54.3608398 Z M138.612598,62.7192383 C138.050095,63.519047 137.169,64.1430642 135.969287,64.5913086 C134.769574,65.039553 133.427058,65.2636719 131.941699,65.2636719 C130.438762,65.2636719 129.102838,64.9033239 127.933887,64.1826172 C126.764936,63.4619105 125.859671,62.4423894 125.218066,61.1240234 C124.576462,59.8056575 124.25127,58.2939538 124.24248,56.5888672 L124.24248,54.1630859 C124.24248,51.4999867 124.914837,49.3972245 126.25957,47.8547363 C127.604304,46.3122481 129.410438,45.5410156 131.678027,45.5410156 C133.655576,45.5410156 135.246381,46.0441844 136.450488,47.0505371 C137.654596,48.0568898 138.370897,49.4433505 138.599414,51.2099609 L136.977832,51.2099609 C136.740526,49.8037039 136.167046,48.7380407 135.257373,48.0129395 C134.347701,47.2878382 133.158992,46.925293 131.691211,46.925293 C129.898233,46.925293 128.478814,47.5624936 127.43291,48.8369141 C126.387006,50.1113345 125.864063,51.9086798 125.864063,54.2290039 L125.864063,56.496582 C125.864063,57.9555737 126.112351,59.2453557 126.608936,60.3659668 C127.10552,61.4865779 127.817427,62.3544891 128.744678,62.9697266 C129.671928,63.584964 130.737592,63.8925781 131.941699,63.8925781 C133.339167,63.8925781 134.538862,63.6728538 135.54082,63.2333984 C136.191214,62.9433579 136.674608,62.6049824 136.991016,62.2182617 L136.991016,57.2612305 L131.83623,57.2612305 L131.83623,55.8901367 L138.612598,55.8901367 L138.612598,62.7192383 Z M164.685547,57.0107422 L159.108887,57.0107422 L159.108887,65 L157.474121,65 L157.474121,45.8046875 L163.709961,45.8046875 C165.757823,45.8046875 167.357416,46.3012646 168.508789,47.2944336 C169.660162,48.2876026 170.23584,49.6762606 170.23584,51.4604492 C170.23584,52.6909241 169.875492,53.7763625 169.154785,54.7167969 C168.434078,55.6572313 167.467291,56.3076154 166.254395,56.6679688 L171.053223,64.8286133 L171.053223,65 L169.326172,65 L164.685547,57.0107422 Z M159.108887,55.6264648 L164.079102,55.6264648 C165.441413,55.6264648 166.53564,55.23975 167.361816,54.4663086 C168.187992,53.6928672 168.601074,52.6909241 168.601074,51.4604492 C168.601074,50.1069268 168.170414,49.0566444 167.309082,48.3095703 C166.44775,47.5624963 165.239266,47.1889648 163.683594,47.1889648 L159.108887,47.1889648 L159.108887,55.6264648 Z M199.314648,59.6210938 L190.600293,59.6210938 L188.622754,65 L186.92207,65 L194.18623,45.8046875 L195.728711,45.8046875 L202.992871,65 L201.305371,65 L199.314648,59.6210938 Z M191.10127,58.2368164 L198.800488,58.2368164 L194.950879,47.7822266 L191.10127,58.2368164 Z M230.687402,56.0351562 L221.735742,56.0351562 L221.735742,65 L220.11416,65 L220.11416,45.8046875 L232.005762,45.8046875 L232.005762,47.1889648 L221.735742,47.1889648 L221.735742,54.6508789 L230.687402,54.6508789 L230.687402,56.0351562 Z M251.579199,65 L249.957617,65 L249.957617,45.8046875 L251.579199,45.8046875 L251.579199,65 Z M281.686328,55.7978516 L272.708301,55.7978516 L272.708301,63.6289062 L283.031055,63.6289062 L283.031055,65 L271.086719,65 L271.086719,45.8046875 L282.965137,45.8046875 L282.965137,47.1889648 L272.708301,47.1889648 L272.708301,54.4267578 L281.686328,54.4267578 L281.686328,55.7978516 Z" id="MEERSTAD-FOTOGRAFIE" fill="#fff"></path>
    </g>
</svg>
